# xmcd CD database file
#
# Track frame offsets:
#	150
#	17374
#	32180
#	52146
#	66221
#	77807
#	98753
#	118007
#	139556
#	165207
#	184234
#	195063
#	206933
#	216281
#	226858
#	240729
#	245843
#	252748
#	270388
#	286262
#	298052
#
# Disc length: 4205 seconds
#
# Revision: 0
# Processed by: cddbd v1.5PL3 Copyright (c) Steve Scherf et al.
# Submitted via: CDex 1.51
#
DISCID=34106b15
DTITLE=Findhorn Foundation Community Singers - When Two or More are Gathered...
DYEAR=2000
DGENRE=New Age
TTITLE0=How could anyone - Libby Roderick
TTITLE1=Radhe Govinda - Hindu Chant
TTITLE2=Every part of the Earth - Anahata Iradah
TTITLE3=I am the only one - unidentified, arr. B. Swetina
TTITLE4=When two or more - German church song
TTITLE5=I am one with the heart - Michael Stillwater
TTITLE6=I am with you - Phyllida Anamaire
TTITLE7=Dear friend - traditional, arr. B. Swetina
TTITLE8=Thy light - K. Masse-Prator, arr. B. Swetina
TTITLE9=I am beautiful - Lori Sunshine, arr. B. Swetina
TTITLE10=Oh great spirit - Native American
TTITLE11=Ya Allah - Mark Havill
TTITLE12=Sansa cromo - African
TTITLE13=Heyo ipsi neja - Naative American
TTITLE14=Wherever you go - Barbara Swetina
TTITLE15=To you we sing - Birthday song
TTITLE16=Rejoice in life - unidentified, arr. B. Swetina
TTITLE17=We are a circle - Rick Hamouris, arr. B. Swetina
TTITLE18=Deep peace - Celtic blessing round
TTITLE19=All is well - traditional round
TTITLE20=Love is the answer - Steven Acton
EXTD=YEAR: 2000
EXTT0=
EXTT1=
EXTT2=
EXTT3=
EXTT4=
EXTT5=
EXTT6=
EXTT7=
EXTT8=
EXTT9=
EXTT10=
EXTT11=
EXTT12=
EXTT13=
EXTT14=
EXTT15=
EXTT16=
EXTT17=
EXTT18=
EXTT19=
EXTT20=
PLAYORDER=
